<svg width="228" height="26" viewBox="0 0 228 26" fill="none" xmlns="http://www.w3.org/2000/svg">
<g clip-path="url(#clip0_2566_46246)">
<path d="M219.97 16.94L227.04 8.52001L220.63 4.82001H195.28C192.47 4.82001 191.37 5.63001 190.07 7.19001L183.97 14.46H196.2L201.08 8.65001C201.59 8.04001 202.05 7.72001 203.25 7.72001H211.92C212.91 7.72001 213.44 8.54001 212.64 9.49001H212.65L206.83 16.42C206.32 17.03 205.86 17.35 204.66 17.35H166.6C165.61 17.35 165.08 16.53 165.88 15.58L174.91 4.82001H164.55C161.74 4.82001 160.64 5.63001 159.34 7.19001L150.81 17.35H135.87C134.88 17.35 134.35 16.53 135.15 15.58L144.18 4.82001H57.68C53.05 4.82001 50.56 5.59001 47.9 8.76001L40.83 17.19L47.24 20.89H70.54C72.14 20.89 72.94 20.46 73.73 19.51C73.91 19.3 75.54 17.36 75.54 17.36H55.64C55.03 17.36 54.7 16.85 55.19 16.26L61.57 8.65001C62.08 8.04001 62.54 7.72001 63.74 7.72001H89.58L78.53 20.89H108.54C110.14 20.89 111.5 20.46 112.29 19.51C112.47 19.3 114.1 17.36 114.1 17.36H95.77C95.16 17.36 94.83 16.85 95.32 16.26L97.38 13.8H111.55C112.86 13.8 113.51 13.45 114.16 12.67C114.3 12.5 115.64 10.91 115.64 10.91H99.81L101.7 8.65001C102.21 8.04001 102.67 7.72001 103.87 7.72001H128.15L117.1 20.89H210.19C214.82 20.89 217.31 20.11 219.97 16.94Z" fill="black"/>
<path d="M6.43995 10.19C6.67995 5.64999 17.2299 3.05999 27.2399 3.80999C22.2299 4.89999 14.1399 7.67999 11.2599 9.87999C9.83995 10.96 9.74995 11.72 10.1799 12.46C10.8899 13.68 14.0299 14.84 14.1799 14.88C13.9899 14.39 14.9099 12.97 17.7599 11.04C21.5699 8.45999 28.0099 4.94999 37.5899 2.13999C37.5899 2.13999 28.7399 -0.0400055 20.3199 -5.51483e-06C7.71995 0.0599945 0.299948 4.35999 0.00994821 9.95999C-0.210052 14.2 4.71995 19.38 17.9099 21.67C11.7699 24.3 5.88995 20.84 5.43995 20.2C5.71995 21.8 8.65995 26.37 17.0499 25.63C24.2599 24.99 28.5099 20.14 28.5099 20.14C21.9699 19.63 6.17995 15.15 6.43995 10.19Z" fill="black"/>
</g>
<defs>
<clipPath id="clip0_2566_46246">
<rect width="227.04" height="25.71" fill="white"/>
</clipPath>
</defs>
</svg>
