<svg width="24" height="24" viewBox="0 0 24 24" fill="none" xmlns="http://www.w3.org/2000/svg">
<path fill-rule="evenodd" clip-rule="evenodd" d="M14.7124 14.0629H15.4351L20 18.6369L18.6369 20L14.0629 15.4351V14.7124L13.8159 14.4563C12.773 15.3528 11.4191 15.8925 9.94625 15.8925C6.66209 15.8925 4 13.2304 4 9.94625C4 6.66209 6.66209 4 9.94625 4C13.2304 4 15.8925 6.66209 15.8925 9.94625C15.8925 11.4191 15.3528 12.773 14.4563 13.8159L14.7124 14.0629ZM5.82962 9.94625C5.82962 12.2241 7.66838 14.0629 9.94625 14.0629C12.2241 14.0629 14.0629 12.2241 14.0629 9.94625C14.0629 7.66838 12.2241 5.82962 9.94625 5.82962C7.66838 5.82962 5.82962 7.66838 5.82962 9.94625Z" fill="black"/>
</svg>
