<svg width="24" height="24" viewBox="0 0 24 24" fill="none" xmlns="http://www.w3.org/2000/svg">
<path fill-rule="evenodd" clip-rule="evenodd" d="M12 4C7.584 4 4 7.584 4 12C4 16.416 7.584 20 12 20C16.416 20 20 16.416 20 12C20 7.584 16.416 4 12 4ZM11.2 17.6V16H12.8V17.6H11.2ZM13.736 12.136L14.456 11.4C14.912 10.944 15.2 10.304 15.2 9.6C15.2 7.832 13.768 6.4 12 6.4C10.232 6.4 8.8 7.832 8.8 9.6H10.4C10.4 8.72 11.12 8 12 8C12.88 8 13.6 8.72 13.6 9.6C13.6 10.04 13.424 10.44 13.128 10.728L12.136 11.736C11.56 12.32 11.2 13.12 11.2 14V14.4H12.8C12.8 13.2 13.16 12.72 13.736 12.136Z" fill="black"/>
</svg>
