<svg width="14" height="14" viewBox="0 0 14 14" fill="none" xmlns="http://www.w3.org/2000/svg">
<path fill-rule="evenodd" clip-rule="evenodd" d="M6.9987 0.333008C3.3187 0.333008 0.332031 3.31967 0.332031 6.99967C0.332031 10.6797 3.3187 13.6663 6.9987 13.6663C10.6787 13.6663 13.6654 10.6797 13.6654 6.99967C13.6654 3.31967 10.6787 0.333008 6.9987 0.333008ZM6.33203 12.2863C3.6987 11.9597 1.66536 9.71968 1.66536 6.99967C1.66536 6.58634 1.7187 6.19301 1.80536 5.80634L4.9987 8.99967V9.66634C4.9987 10.3997 5.5987 10.9997 6.33203 10.9997V12.2863ZM9.66537 9.66634C10.2654 9.66634 10.7587 10.053 10.932 10.593C11.7987 9.64634 12.332 8.38634 12.332 6.99967C12.332 4.76634 10.952 2.85301 8.9987 2.05967V2.33301C8.9987 3.06634 8.3987 3.66634 7.66536 3.66634H6.33203V4.99967C6.33203 5.36634 6.03203 5.66634 5.66536 5.66634H4.33203V6.99967H8.33203C8.6987 6.99967 8.9987 7.29967 8.9987 7.66634V9.66634H9.66537Z" fill="#999999"/>
</svg>
